<svg width="20" height="20" viewBox="0 0 20 20" fill="none" xmlns="http://www.w3.org/2000/svg">
<path d="M12.1084 7.89172L7.89172 12.1084C7.35006 11.5667 7.01672 10.8251 7.01672 10.0001C7.01672 8.35006 8.35006 7.01672 10.0001 7.01672C10.8251 7.01672 11.5667 7.35006 12.1084 7.89172Z" stroke="#292D32" stroke-width="1.5" stroke-linecap="round" stroke-linejoin="round"/>
<path d="M14.85 4.80828C13.3917 3.70828 11.725 3.10828 9.99999 3.10828C7.05833 3.10828 4.31666 4.84161 2.40833 7.84161C1.65833 9.01661 1.65833 10.9916 2.40833 12.1666C3.06666 13.1999 3.83333 14.0916 4.66666 14.8083" stroke="#292D32" stroke-width="1.5" stroke-linecap="round" stroke-linejoin="round"/>
<path d="M7.01672 16.2749C7.96672 16.6749 8.97506 16.8916 10.0001 16.8916C12.9417 16.8916 15.6834 15.1583 17.5917 12.1583C18.3417 10.9833 18.3417 9.00828 17.5917 7.83328C17.3167 7.39994 17.0167 6.99161 16.7084 6.60828" stroke="#292D32" stroke-width="1.5" stroke-linecap="round" stroke-linejoin="round"/>
<path d="M12.925 10.5834C12.7083 11.7584 11.75 12.7167 10.575 12.9334" stroke="#292D32" stroke-width="1.5" stroke-linecap="round" stroke-linejoin="round"/>
<path d="M7.89163 12.1083L1.66663 18.3333" stroke="#292D32" stroke-width="1.5" stroke-linecap="round" stroke-linejoin="round"/>
<path d="M18.3333 1.66663L12.1083 7.89163" stroke="#292D32" stroke-width="1.5" stroke-linecap="round" stroke-linejoin="round"/>
</svg>
