<?xml version="1.0" encoding="utf-8"?>
<!-- Generator: Adobe Illustrator 24.0.1, SVG Export Plug-In . SVG Version: 6.00 Build 0)  -->
<svg version="1.1" id="Layer_1" xmlns="http://www.w3.org/2000/svg" xmlns:xlink="http://www.w3.org/1999/xlink" x="0px" y="0px"
	 viewBox="0 0 273.6 96.5" style="enable-background:new 0 0 273.6 96.5;" xml:space="preserve">
<style type="text/css">
	.st0{fill:#231F20;}
	.st1{fill:#FFFFFF;}
	.st2{font-family:'Gotham-Bold';}
	.st3{font-size:43.79px;}
	.st4{letter-spacing:-1;}
	.st5{font-family:'Gotham-Book';}
	.st6{font-size:8.63px;}
	.st7{letter-spacing:2;}
</style>
<title>logo-white</title>
<g id="Layer_2_1_">
	<g id="Layer_1-2">
		<path class="st0" d="M187.2,14.3L187.2,14.3l0.2-0.1L187.2,14.3z"/>
		<path class="st1" d="M106.6,35.5c-4.9-1.9-10.1-2.9-15.3-3c-0.4-4.9-1.6-9.8-3.6-14.3L87,16.5l-1.8,0.1C79.4,17,73.8,18.5,68.6,21
			c-3.2-5.6-7.6-10.5-12.9-14.2l-1.5-1l-1.5,1c-5.3,3.7-9.7,8.6-12.9,14.3c-5.4-2.7-11.2-4.3-17.3-4.7l-1.8-0.1L20,17.9
			c-2,4.6-3.2,9.5-3.5,14.5c-5.1,0.1-10.1,1.1-14.8,3L0,36.1l0.1,1.8c0.3,13.6,7.1,26.1,18.4,33.7C29,78.4,42.1,80,54,76
			c4.4,1.4,8.9,2.2,13.5,2.2c7.9,0,15.6-2.3,22.2-6.6c11.3-7.5,18.2-20.1,18.4-33.7v-1.8L106.6,35.5z M83.7,21.9
			c1.3,3.5,2.2,7.1,2.5,10.8l-0.6,0.1l-1,0.1l-0.5,0.1c-0.3,0-0.6,0.1-0.9,0.2l-0.5,0.1l-1,0.2l-0.6,0.1l-0.7,0.2l-0.9,0.2L79,34.1
			l-0.6,0.2l0,0l-0.7,0.2l-0.5,0.2l-0.3,0.1l-0.5,0.2L76.2,35L76,35.1L75,35.5l-0.8,0.3l-0.6,0.3c0,0,0-0.1,0-0.1
			c0-0.2,0-0.3-0.1-0.5s0-0.2,0-0.4V35c0-0.2-0.1-0.3-0.1-0.5c-0.1-0.4-0.1-0.8-0.2-1.3l-0.1-0.3c0-0.2-0.1-0.4-0.1-0.5
			c-0.1-0.4-0.2-0.7-0.2-1.1v0l-0.2-0.6c0-0.1-0.1-0.3-0.1-0.4s0-0.1-0.1-0.2c-0.1-0.2-0.1-0.4-0.2-0.7s-0.2-0.7-0.3-1v-0.1
			c0-0.1-0.1-0.3-0.2-0.4l-0.2-0.6c-0.1-0.2-0.2-0.5-0.3-0.7c0-0.1,0-0.1-0.1-0.2v-0.1c-0.1-0.3-0.2-0.5-0.3-0.8
			C75,23.6,79.3,22.3,83.7,21.9z M24,21.6c4.7,0.5,9.4,1.9,13.6,4.1c-0.1,0.3-0.2,0.5-0.3,0.8s-0.2,0.6-0.3,0.9c0,0.1,0,0.1-0.1,0.2
			c-0.1,0.3-0.2,0.6-0.3,0.8l-0.1,0.1l0,0c-0.1,0.3-0.2,0.5-0.2,0.8L36,30.3l-0.2,0.6c-0.1,0.5-0.3,1-0.3,1.5
			c-0.1,0.2-0.1,0.4-0.1,0.7c-0.1,0.5-0.2,1-0.3,1.5c0,0.3-0.1,0.5-0.1,0.8L34.9,36c0,0.1,0,0.1,0,0.2c-1.5-0.7-3.1-1.3-4.7-1.9
			l-0.7-0.2c-0.3-0.1-0.7-0.2-1-0.3l-0.9-0.2l-0.8-0.2h-0.1l-0.8-0.2c-1.4-0.3-2.9-0.5-4.3-0.7C21.8,28.8,22.7,25.1,24,21.6z
			 M21.3,67.3c-9.4-6.2-15.3-16.5-16-27.8c4.4-1.5,9-2.2,13.6-2.1l1.1,0c0.4,0,0.7,0,1.1,0.1l1,0.1l0.8,0.1h0.1c0.1,0,0.2,0,0.3,0
			l1,0.2l0.8,0.2h0.2c0.3,0.1,0.6,0.1,1,0.2l1,0.3h0.1c0.3,0.1,0.5,0.1,0.8,0.2l0.4,0.1c0.2,0.1,0.5,0.1,0.7,0.2l0.6,0.2l0.3,0.1
			l0.7,0.3l0.4,0.2l0.5,0.2l0.6,0.2c0.3,0.1,0.6,0.3,0.9,0.4l0.5,0.3c0.4,0.2,0.8,0.4,1.2,0.6V42c0,0.3,0,0.5,0,0.7s0,0.3,0,0.4
			s0,0.5,0,0.7s0,0.3,0,0.4s0,0.5,0.1,0.7v0.1c0,0.1,0,0.1,0,0.2c0,0.3,0.1,0.6,0.1,0.9v0.3c0,0.2,0.1,0.4,0.1,0.6v0.1
			c0,0.2,0.1,0.4,0.1,0.6s0,0.2,0,0.3l0.1,0.6c0,0.2,0.1,0.5,0.2,0.7s0.1,0.3,0.1,0.4c0,0.2,0.1,0.4,0.1,0.6v0.1
			c0.1,0.2,0.1,0.4,0.2,0.6s0.1,0.2,0.1,0.3c0.1,0.2,0.1,0.5,0.2,0.7s0.1,0.3,0.1,0.3l0.2,0.7v0.1c0,0.1,0,0.2,0.1,0.2
			c0.1,0.3,0.2,0.6,0.3,0.9c0,0,0,0.1,0,0.2c0.1,0.2,0.2,0.5,0.3,0.7s0.1,0.3,0.2,0.4s0.2,0.5,0.3,0.7l0.1,0.1
			c0.1,0.3,0.2,0.5,0.3,0.8l0.2,0.4v0.1l0.2,0.5l0.2,0.3l0.3,0.7c0.1,0.3,0.3,0.5,0.4,0.8s0.4,0.7,0.5,1s0.4,0.7,0.6,1
			s0.4,0.6,0.6,0.9s0.4,0.6,0.6,0.9L42,64c0.2,0.3,0.4,0.6,0.7,0.9l0.7,0.9c0.2,0.3,0.4,0.6,0.7,0.9s0.4,0.5,0.6,0.8
			c0.8,0.9,1.6,1.8,2.5,2.6c0.3,0.3,0.5,0.5,0.8,0.8l0.9,0.8l0.4,0.3C39.7,74.4,29.5,72.7,21.3,67.3z M98.2,55.5
			c-2.8,4.8-6.6,8.8-11.2,11.8C82,70.6,76.4,72.5,70.6,73h-0.1c-0.9,0.1-1.8,0.1-2.7,0.1c-2.4,0.1-4.9,0-7.3-0.5
			c-0.7-0.2-1.5-0.4-2.2-0.7c-0.4-0.2-0.8-0.3-0.9-0.4s-0.6-0.3-1.2-0.6c-2.4-1.4-4.6-3.2-6.5-5.2c-0.3-0.4-1-1.2-1.8-2.2
			s-1.3-1.7-1.8-2.4l-0.5-0.7c-0.2-0.3-0.4-0.5-0.4-0.6c-0.3-0.4-0.5-0.9-0.8-1.3l-0.1-0.1l-0.3-0.6l-0.3-0.6
			c-0.3-0.5-0.5-1.1-0.8-1.6c-0.1-0.2-0.1-0.3-0.2-0.5c-0.3-0.7-0.6-1.3-0.8-2c-0.1-0.2-0.2-0.4-0.2-0.6v-0.1
			c-0.1-0.2-0.2-0.5-0.3-0.7s-0.1-0.5-0.2-0.7s-0.2-0.5-0.2-0.8s-0.1-0.4-0.2-0.6v-0.1c-0.1-0.3-0.1-0.5-0.2-0.8l-0.1-0.5
			c-0.1-0.3-0.1-0.6-0.2-0.9l-0.1-0.6c0-0.2-0.1-0.5-0.1-0.8s0-0.4-0.1-0.6C40.1,45,40,44.6,40,44.1c0-0.2,0-0.3,0-0.5
			c-0.1-1-0.1-2-0.1-2.9v-0.4v-1.1v-0.1c0.2-4.7,1.4-9.3,3.4-13.5c2.5-5.3,6.3-10,10.9-13.7c4.7,3.6,8.4,8.2,11,13.5
			c0.1,0.2,0.2,0.5,0.4,0.8s0.2,0.5,0.3,0.7s0.2,0.4,0.3,0.6l0.1,0.1l0.2,0.5v0.1l0.1,0.2l0.2,0.6c0.1,0.3,0.2,0.5,0.3,0.8
			s0.2,0.5,0.3,0.8s0.1,0.4,0.2,0.6v0.1c0.2,0.7,0.3,1.3,0.5,1.9c0,0.2,0.1,0.3,0.1,0.5v0.1l0,0c0,0.2,0.1,0.4,0.1,0.7
			s0.1,0.5,0.1,0.7v0.4c0.1,0.4,0.1,0.9,0.2,1.3c0,0.1,0,0.2,0,0.3l0.1,0.7c0,0.1,0,0.3,0,0.5s0,0.2,0,0.4v0.1c0,0.1,0,0.3,0,0.5
			s0,0.4,0,0.7s0,0.2,0,0.3v0.3c0,0.3,0,0.6,0,1s0,0.6,0,0.9s0,0.6-0.1,0.9v0.1c0,0.3,0,0.6-0.1,0.8c0,0.1,0,0.1,0,0.2
			c0,0.2,0,0.5-0.1,0.7c0,0.3-0.1,0.6-0.1,0.9c0,0.2,0,0.3-0.1,0.5v0.1l-0.1,0.7c-0.1,0.3-0.1,0.5-0.2,0.8s-0.1,0.5-0.2,0.8
			c-0.1,0.5-0.3,1-0.4,1.6c0,0.1-0.1,0.2-0.1,0.3v0.2c-0.1,0.2-0.1,0.4-0.2,0.6s-0.1,0.4-0.2,0.6c-0.2,0.4-0.3,0.8-0.5,1.3
			c0,0.1-0.1,0.3-0.2,0.4c-0.2,0.5-0.4,1.1-0.7,1.6c-0.1,0.2-0.2,0.5-0.3,0.7c-0.3,0.6-0.6,1.2-0.9,1.7c-0.2,0.3-0.3,0.5-0.5,0.8
			s-0.3,0.5-0.4,0.7c-2,3.1-4.3,5.9-7.1,8.3l-0.5,0.4l0.5,0.3c1,0.6,2.2,1.2,3.3,1.6l1,0.3l0.2,0.1l0.2-0.2c2.6-2.5,4.9-5.4,6.8-8.5
			c0.1-0.2,0.2-0.3,0.3-0.5l0.1-0.1c0.2-0.3,0.3-0.6,0.4-0.8l0.1-0.1c0.1-0.2,0.2-0.4,0.3-0.6s0.2-0.3,0.3-0.5l0.4-0.7v-0.1
			c0.1-0.2,0.2-0.4,0.3-0.6c0.1-0.2,0.2-0.3,0.2-0.5l0.3-0.7v-0.1l0.3-0.6c0.1-0.2,0.1-0.3,0.2-0.5s0.2-0.5,0.3-0.7V55
			c0.2-0.6,0.4-1.2,0.6-1.7c0.1-0.4,0.2-0.7,0.3-1.1s0.2-0.6,0.2-0.8l0.1-0.4l0.2-1c0-0.3,0.1-0.5,0.2-0.8c0.1-0.2,0.1-0.4,0.1-0.7
			c0-0.1,0-0.2,0.1-0.3c0-0.2,0.1-0.5,0.1-0.7c0.1-0.5,0.1-0.9,0.2-1.3c0-0.1,0-0.2,0-0.4s0-0.4,0.1-0.7v-0.3v-0.1
			c0-0.3,0.1-0.6,0.1-0.8s0-0.5,0-0.8c0-0.1,0-0.2,0-0.3v-0.2c0-0.3,0-0.5,0-0.8v-0.3l1.8-0.6l0.4-0.2l0.9-0.4l0,0h0.1l0.6-0.3
			l0.3-0.1c0.2-0.1,0.4-0.2,0.6-0.2l0.2-0.1c0.2-0.1,0.4-0.2,0.7-0.2l1.1-0.4l0.2,0c0.2-0.1,0.4-0.1,0.6-0.2l0.4-0.1h0.1
			c0.3-0.1,0.5-0.1,0.8-0.2c0.3-0.1,0.6-0.2,1-0.2l0.5-0.1l0.5-0.1H84c0.2,0,0.3-0.1,0.5-0.1L85,38l0.5-0.1l0.5-0.1l0.5-0.1h0.1H87
			l0.6,0h0.3H88h0.6H89c4.8-0.2,9.5,0.5,14,2C102.6,45.3,100.9,50.7,98.2,55.5z"/>
		<path class="st1" d="M66.4,40.2c0,1.2-0.1,2.3-0.2,3.5c-0.2,1.5-0.4,2.9-0.8,4.3c0.1-1.2,0.1-2.5,0.1-3.7
			c-0.4-10.3-5.8-19.8-14.4-25.5c1-1,2.1-2,3.2-2.8C62,21.8,66.5,30.7,66.4,40.2z"/>
		<text transform="matrix(1 0 0 1 115.58 37.22)" class="st1 st2 st3">Beauty</text>
		<text transform="matrix(1 0 0 1 115.58 78.57)" class="st1 st2 st3">C</text>
		<text transform="matrix(1 0 0 1 147.54 78.57)" class="st1 st2 st3 st4">r</text>
		<text transform="matrix(1 0 0 1 165.19 78.57)" class="st1 st2 st3">aft</text>
		<text transform="matrix(1 0 0 1 46.83 95.04)" class="st1 st5 st6 st7">REDEFINING </text>
		<text transform="matrix(1 0 0 1 133.54 95.04)" class="st1 st5 st6 st7">Y</text>
		<text transform="matrix(1 0 0 1 141.79 95.04)" class="st1 st5 st6 st7">OUR BE</text>
		<text transform="matrix(1 0 0 1 192.06 95.04)" class="st1 st5 st6 st7">A</text>
		<text transform="matrix(1 0 0 1 201.25 95.04)" class="st1 st5 st6 st7">UTY</text>
	</g>
</g>
</svg>
